<?xml version="1.0" encoding="utf-8"?>
<svg xmlns="http://www.w3.org/2000/svg" width="32" height="32" viewBox="0 0 24 24" xmlns:bx="https://boxy-svg.com">
  <defs>
    <bx:export>
      <bx:file format="svg"/>
    </bx:export>
  </defs>
  <ellipse style="stroke-width: 0px; paint-order: fill; stroke: rgb(0, 0, 0);" cx="12" cy="11.953" rx="11.906" ry="11.906"/>
  <g fill="none" stroke="#888888" stroke-linecap="round" stroke-linejoin="round" stroke-width="2" transform="matrix(0.8, 0, 0, 0.8, 2.4, 2.35)">
    <path d="M17 19a1 1 0 0 1-1-1v-2a2 2 0 0 1 2-2h2a2 2 0 0 1 2 2v2a1 1 0 0 1-1 1zm0 2v-2" style="stroke: rgb(255, 255, 255);"/>
    <path d="M19 14V6.5a1 1 0 0 0-7 0v11a1 1 0 0 1-7 0V10m16 11v-2M3 5V3" style="stroke: rgb(255, 255, 255);"/>
    <path d="M4 10a2 2 0 0 1-2-2V6a1 1 0 0 1 1-1h4a1 1 0 0 1 1 1v2a2 2 0 0 1-2 2zm3-5V3" style="stroke: rgb(255, 255, 255);"/>
  </g>
</svg>