<?xml version="1.0" encoding="UTF-8"?>
<svg xmlns="http://www.w3.org/2000/svg" xmlns:xlink="http://www.w3.org/1999/xlink" width="512px" height="512px" viewBox="0 0 512 512" version="1.1">
<g id="surface1">
<path style=" stroke:none;fill-rule:nonzero;fill:rgb(0%,0%,0%);fill-opacity:1;" d="M 509.996094 254.996094 C 509.996094 395.273438 396.277344 508.992188 256 508.992188 C 115.722656 508.992188 2.003906 395.273438 2.003906 254.996094 C 2.003906 114.71875 115.722656 1.003906 256 1.003906 C 396.277344 1.003906 509.996094 114.71875 509.996094 254.996094 Z M 509.996094 254.996094 "/>
<path style="fill:none;stroke-width:2;stroke-linecap:round;stroke-linejoin:round;stroke:rgb(100%,100%,100%);stroke-opacity:1;stroke-miterlimit:4;" d="M 16.999923 18.999908 C 16.447631 18.999908 15.999939 18.552215 15.999939 17.999924 L 15.999939 15.999954 C 15.999939 14.89537 16.895324 13.999985 17.999908 13.999985 L 20.000106 13.999985 C 21.104461 13.999985 22.000076 14.89537 22.000076 15.999954 L 22.000076 17.999924 C 22.000076 18.552215 21.552383 18.999908 21.000091 18.999908 Z M 16.999923 21.000107 L 16.999923 18.999908 " transform="matrix(17.066667,0,0,17.066667,51.200002,50.133331)"/>
<path style="fill:none;stroke-width:2;stroke-linecap:round;stroke-linejoin:round;stroke:rgb(100%,100%,100%);stroke-opacity:1;stroke-miterlimit:4;" d="M 18.999893 13.999985 L 18.999893 6.499985 C 18.999893 4.567078 17.432968 2.999924 15.500061 2.999924 C 13.566925 2.999924 12 4.567078 12 6.499985 L 12 17.500046 C 12 19.432953 10.433075 21.000107 8.499939 21.000107 C 6.567032 21.000107 5.000107 19.432953 5.000107 17.500046 L 5.000107 10.000046 M 21.000091 21.000107 L 21.000091 18.999908 M 2.999908 4.999893 L 2.999908 2.999924 " transform="matrix(17.066667,0,0,17.066667,51.200002,50.133331)"/>
<path style="fill:none;stroke-width:2;stroke-linecap:round;stroke-linejoin:round;stroke:rgb(100%,100%,100%);stroke-opacity:1;stroke-miterlimit:4;" d="M 3.999893 10.000046 C 2.895538 10.000046 1.999924 9.10466 1.999924 8.000076 L 1.999924 6.000107 C 1.999924 5.447815 2.447616 4.999893 2.999908 4.999893 L 7.000076 4.999893 C 7.552368 4.999893 8.000061 5.447815 8.000061 6.000107 L 8.000061 8.000076 C 8.000061 9.10466 7.104675 10.000046 6.000091 10.000046 Z M 7.000076 4.999893 L 7.000076 2.999924 " transform="matrix(17.066667,0,0,17.066667,51.200002,50.133331)"/>
</g>
</svg>
